<svg xmlns="http://www.w3.org/2000/svg" viewBox="0 0 900 516" role="img"><rect width="900" height="516" fill="#fffdf8"/><text x="46" y="50" font-family="JetBrains Mono, IBM Plex Mono, ui-monospace, monospace" font-size="26" font-weight="460" fill="#14201c" text-anchor="start">Extra errors against the radiologist&#x27;s own words</text>
<text x="48" y="80" font-family="IBM Plex Mono, ui-monospace, monospace" font-size="13" font-weight="500" fill="#707a72" text-anchor="start">excess critical-token error introduced over the full model  ·  lower is safer  ·  IU X-Ray, 64 reports</text>
<text x="48" y="104" font-family="IBM Plex Mono, ui-monospace, monospace" font-size="12" font-weight="500" fill="#707a72" text-anchor="start">(this is correctness vs ground-truth report text, not self-consistency)</text>
<rect x="360" y="120" width="12" height="12" rx="2" fill="#b1493b"/>
<text x="378" y="130" font-family="IBM Plex Mono, ui-monospace, monospace" font-size="12" font-weight="600" fill="#707a72" text-anchor="start">confidence baseline</text>
<rect x="530" y="120" width="12" height="12" rx="2" fill="#0e6f63"/>
<text x="548" y="130" font-family="IBM Plex Mono, ui-monospace, monospace" font-size="12" font-weight="600" fill="#707a72" text-anchor="start">TokenTriage</text>
<text x="60" y="168" font-family="IBM Plex Mono, ui-monospace, monospace" font-size="15" font-weight="700" fill="#14201c" text-anchor="start">Qwen2.5-0.5B</text>
<text x="60" y="190" font-family="IBM Plex Mono, ui-monospace, monospace" font-size="11" font-weight="500" fill="#707a72" text-anchor="start">Qwen2.5 · full-model floor 77%</text>
<rect x="360" y="154" width="360" height="20" rx="5" fill="#efece2" stroke="#e2ddd0"/>
<rect x="360" y="154" width="34.3" height="20" rx="5" fill="#b1493b"/>
<text x="732" y="170" font-family="IBM Plex Mono, ui-monospace, monospace" font-size="13" font-weight="700" fill="#b1493b" text-anchor="start">+2.1 pt</text>
<rect x="360" y="180" width="360" height="20" rx="5" fill="#efece2" stroke="#e2ddd0"/>
<rect x="360" y="180" width="0.0" height="20" rx="5" fill="#0e6f63"/>
<text x="732" y="196" font-family="IBM Plex Mono, ui-monospace, monospace" font-size="13" font-weight="700" fill="#0a4f47" text-anchor="start">+0.0 pt</text>
<text x="60" y="252" font-family="IBM Plex Mono, ui-monospace, monospace" font-size="15" font-weight="700" fill="#14201c" text-anchor="start">SmolLM2-1.7B</text>
<text x="60" y="274" font-family="IBM Plex Mono, ui-monospace, monospace" font-size="11" font-weight="500" fill="#707a72" text-anchor="start">SmolLM2 · full-model floor 78%</text>
<rect x="360" y="238" width="360" height="20" rx="5" fill="#efece2" stroke="#e2ddd0"/>
<rect x="360" y="238" width="360.0" height="20" rx="5" fill="#b1493b"/>
<text x="732" y="254" font-family="IBM Plex Mono, ui-monospace, monospace" font-size="13" font-weight="700" fill="#b1493b" text-anchor="start">+21.5 pt</text>
<rect x="360" y="264" width="360" height="20" rx="5" fill="#efece2" stroke="#e2ddd0"/>
<rect x="360" y="264" width="33.7" height="20" rx="5" fill="#0e6f63"/>
<text x="732" y="280" font-family="IBM Plex Mono, ui-monospace, monospace" font-size="13" font-weight="700" fill="#0a4f47" text-anchor="start">+2.0 pt</text>
<text x="60" y="336" font-family="IBM Plex Mono, ui-monospace, monospace" font-size="15" font-weight="700" fill="#14201c" text-anchor="start">Qwen2.5-1.5B</text>
<text x="60" y="358" font-family="IBM Plex Mono, ui-monospace, monospace" font-size="11" font-weight="500" fill="#707a72" text-anchor="start">Qwen2.5 · full-model floor 76%</text>
<rect x="360" y="322" width="360" height="20" rx="5" fill="#efece2" stroke="#e2ddd0"/>
<rect x="360" y="322" width="280.1" height="20" rx="5" fill="#b1493b"/>
<text x="732" y="338" font-family="IBM Plex Mono, ui-monospace, monospace" font-size="13" font-weight="700" fill="#b1493b" text-anchor="start">+16.7 pt</text>
<rect x="360" y="348" width="360" height="20" rx="5" fill="#efece2" stroke="#e2ddd0"/>
<rect x="360" y="348" width="39.4" height="20" rx="5" fill="#0e6f63"/>
<text x="732" y="364" font-family="IBM Plex Mono, ui-monospace, monospace" font-size="13" font-weight="700" fill="#0a4f47" text-anchor="start">+2.4 pt</text>
<text x="60" y="420" font-family="IBM Plex Mono, ui-monospace, monospace" font-size="15" font-weight="700" fill="#14201c" text-anchor="start">Qwen2.5-3B</text>
<text x="60" y="442" font-family="IBM Plex Mono, ui-monospace, monospace" font-size="11" font-weight="500" fill="#707a72" text-anchor="start">Qwen2.5 · full-model floor 73%</text>
<rect x="360" y="406" width="360" height="20" rx="5" fill="#efece2" stroke="#e2ddd0"/>
<rect x="360" y="406" width="289.8" height="20" rx="5" fill="#b1493b"/>
<text x="732" y="422" font-family="IBM Plex Mono, ui-monospace, monospace" font-size="13" font-weight="700" fill="#b1493b" text-anchor="start">+17.3 pt</text>
<rect x="360" y="432" width="360" height="20" rx="5" fill="#efece2" stroke="#e2ddd0"/>
<rect x="360" y="432" width="49.1" height="20" rx="5" fill="#0e6f63"/>
<text x="732" y="448" font-family="IBM Plex Mono, ui-monospace, monospace" font-size="13" font-weight="700" fill="#0a4f47" text-anchor="start">+2.9 pt</text></svg>
